<?xml version="1.0" ?><svg viewBox="0 0 512 512" xmlns="http://www.w3.org/2000/svg"><g data-name="Capa 20" id="Capa_20"><path d="M165.94,434.13a6,6,0,0,1-6-6V166.4a6,6,0,0,1,12,0V428.13A6,6,0,0,1,165.94,434.13Z"/><path d="M433,434.13H102.11a28,28,0,0,1-28-28v-275a28,28,0,0,1,28-28H433a28,28,0,0,1,28,28v275A28,28,0,0,1,433,434.13ZM102.11,115.21a16,16,0,0,0-16,16v275a16,16,0,0,0,16,16H433a16,16,0,0,0,16-16v-275a16,16,0,0,0-16-16Z"/><path d="M455,172.4H80.15a6,6,0,0,1,0-12H455a6,6,0,0,1,0,12Z"/><path d="M267.55,434.13a6,6,0,0,1-6-6V166.4a6,6,0,0,1,12,0V428.13A6,6,0,0,1,267.55,434.13Z"/><path d="M369.17,434.13a6,6,0,0,1-6-6V166.4a6,6,0,0,1,12,0V428.13A6,6,0,0,1,369.17,434.13Z"/><path d="M455,244.92H80.15a6,6,0,0,1,0-12H455a6,6,0,0,1,0,12Z"/><path d="M455,352.15H80.15a6,6,0,1,1,0-12H455a6,6,0,0,1,0,12Z"/></g></svg>